<?xml version="1.0" standalone="no"?>
<!DOCTYPE svg PUBLIC "-//W3C//DTD SVG 20010904//EN"
 "http://www.w3.org/TR/2001/REC-SVG-20010904/DTD/svg10.dtd">
<svg version="1.0" xmlns="http://www.w3.org/2000/svg"
 width="260.000000pt" height="260.000000pt" viewBox="0 0 260.000000 260.000000"
 preserveAspectRatio="xMidYMid meet">
<metadata>
Created by potrace 1.11, written by Peter Selinger 2001-2013
</metadata>
<g transform="translate(0.000000,260.000000) scale(0.100000,-0.100000)"
fill="#000000" stroke="none">
<path d="M445 1958 c-60 -21 -161 -85 -201 -129 -28 -31 -84 -137 -84 -158 0
-10 -6 -23 -12 -29 -17 -17 -18 -183 -2 -203 7 -8 15 -29 19 -48 7 -31 25 -65
77 -138 13 -18 43 -47 68 -65 25 -17 47 -35 50 -39 3 -4 28 -17 55 -30 44 -21
65 -24 170 -24 104 0 126 3 167 23 26 12 50 22 53 22 13 0 139 119 149 140 4
8 13 26 21 40 8 14 15 36 15 50 0 22 -4 19 -30 -22 -17 -27 -32 -48 -34 -48
-2 0 3 19 11 41 7 23 16 78 18 123 2 44 2 72 -1 61 -30 -104 -134 -226 -236
-277 -125 -63 -306 -18 -383 96 -48 71 -69 136 -69 212 0 39 4 78 10 85 6 8
17 31 23 52 7 20 16 37 20 37 3 0 15 16 25 35 40 74 160 121 281 111 33 -3 53
-3 45 1 -8 3 -18 11 -22 17 -9 13 -154 12 -171 -2 -6 -5 -28 -13 -47 -17 -32
-6 -33 -6 -15 8 31 22 84 37 134 38 25 1 57 4 71 8 23 6 139 -24 150 -39 3 -4
21 -15 40 -25 38 -19 81 -63 106 -108 22 -40 28 -28 7 14 -21 44 -106 125
-158 151 -59 29 -169 58 -217 57 -24 -1 -70 -10 -103 -21z"/>
<path d="M1248 1973 c-1 -5 -16 -15 -32 -24 -39 -22 -94 -119 -68 -119 4 0 14
16 21 36 25 70 88 104 159 84 44 -11 52 -24 52 -79 0 -41 -34 -81 -69 -81 -11
0 -23 -4 -26 -10 -4 -6 9 -10 33 -10 43 0 82 -31 82 -67 0 -67 -34 -98 -117
-110 l-44 -6 3 74 c3 72 4 74 28 72 l25 -3 -24 12 c-23 12 -23 14 -17 108 5
56 4 91 -2 85 -15 -17 -32 -90 -32 -138 0 -40 -3 -46 -28 -55 -41 -14 -62 -39
-62 -75 0 -41 7 -50 53 -76 68 -38 154 -23 220 37 21 20 27 35 27 68 0 35 -5
47 -30 68 l-31 25 26 40 c33 54 32 74 -10 116 -31 30 -42 35 -84 35 -27 0 -51
-3 -53 -7z m-32 -274 c-3 -17 -6 -47 -6 -65 0 -37 -10 -42 -34 -18 -32 32 -14
114 26 114 18 0 20 -4 14 -31z"/>
<path d="M1766 1954 c-3 -9 -6 -29 -6 -44 0 -16 -5 -52 -11 -80 -8 -37 -15
-50 -28 -50 -30 0 -69 -51 -77 -100 -17 -112 -44 -106 -44 10 0 71 -3 90 -14
90 -10 0 -17 -18 -21 -57 -8 -66 -31 -123 -50 -123 -32 0 -43 100 -19 164 5
14 3 17 -12 14 -17 -3 -19 -13 -19 -85 0 -70 3 -85 21 -101 19 -18 22 -18 40
-3 11 9 26 25 32 36 10 18 11 18 12 2 0 -10 9 -27 20 -39 11 -12 20 -18 20
-12 0 5 8 14 19 21 15 10 23 8 41 -9 l22 -20 28 27 28 27 16 -28 c8 -16 15
-24 16 -17 0 7 8 17 19 22 14 8 23 5 40 -10 l22 -21 25 23 c23 22 25 22 37 5
12 -16 16 -17 35 -5 12 8 22 18 22 23 0 5 10 -3 21 -18 l21 -27 16 23 c8 13
16 24 18 26 1 2 14 -8 29 -22 16 -15 35 -26 44 -26 26 1 68 44 81 86 7 21 17
50 22 64 l10 24 18 -24 c18 -24 18 -25 -11 -61 -31 -40 -36 -58 -17 -77 37
-37 78 4 78 80 0 52 2 56 30 68 17 7 29 15 26 17 -2 2 -18 -3 -36 -12 -26 -13
-34 -14 -48 -4 -31 23 -42 43 -42 72 0 18 -4 27 -12 25 -9 -3 -13 -29 -14 -77
-1 -59 -6 -78 -28 -111 -27 -41 -60 -52 -84 -28 -20 20 -14 34 21 49 63 28 73
119 13 119 -43 0 -75 -50 -91 -142 -11 -66 -25 -41 -25 43 0 60 -3 80 -12 77
-7 -3 -16 -27 -19 -54 -7 -53 -27 -104 -41 -104 -10 0 -9 167 2 280 4 47 6 87
4 89 -11 12 -33 -39 -34 -74 -1 -73 -11 -115 -29 -115 -26 0 -68 -51 -76 -90
-9 -51 -26 -90 -38 -90 -11 0 -3 304 9 348 7 25 -10 31 -20 6z m-26 -233 c0
-94 -22 -143 -52 -113 -16 16 -12 109 6 137 27 42 46 32 46 -24z m170 0 c0
-94 -22 -143 -52 -113 -16 16 -12 109 6 137 27 42 46 32 46 -24z m239 31 c13
-25 3 -60 -20 -67 -10 -4 -19 -11 -19 -16 0 -5 -4 -9 -10 -9 -17 0 -11 68 7
90 22 25 30 25 42 2z m128 -150 c-8 -8 -20 -11 -26 -7 -15 9 -4 46 18 63 14
11 16 10 19 -14 2 -15 -3 -33 -11 -42z"/>
<path d="M1995 1860 c-9 -15 4 -30 26 -30 12 0 19 7 19 20 0 21 -33 29 -45 10z"/>
<path d="M740 1840 c0 -5 5 -10 10 -10 6 0 10 5 10 10 0 6 -4 10 -10 10 -5 0
-10 -4 -10 -10z"/>
<path d="M793 1806 c15 -14 39 -38 53 -53 l26 -28 -21 32 c-12 18 -36 42 -54
54 l-32 21 28 -26z"/>
<path d="M1134 1466 c-11 -29 7 -36 91 -36 74 0 83 -2 80 -17 -9 -43 -14 -323
-6 -323 11 0 31 154 34 260 l2 85 71 3 c54 2 76 -1 87 -13 22 -22 27 -19 27
15 l0 30 -77 0 c-72 0 -154 -9 -228 -25 -23 -5 -36 -1 -53 15 -19 18 -23 19
-28 6z"/>
<path d="M1697 1473 c-3 -5 -8 -69 -12 -143 -7 -141 -20 -191 -55 -210 -61
-33 -94 96 -40 150 21 21 40 9 40 -27 0 -13 5 -23 10 -23 14 0 12 43 -3 64
-32 43 -94 -18 -112 -112 -12 -58 -76 -78 -94 -29 -6 17 -1 24 33 42 35 18 41
27 44 58 5 62 -55 75 -98 20 -30 -38 -28 -122 3 -151 37 -35 92 -25 110 20 4
9 13 4 27 -14 29 -37 73 -38 96 -3 18 28 34 25 34 -6 0 -11 5 -17 10 -14 6 3
10 17 10 31 0 13 4 32 8 42 40 81 49 96 60 100 9 3 12 -17 12 -75 0 -43 4 -84
9 -92 21 -32 65 17 76 84 5 39 5 39 -15 -12 -12 -29 -26 -53 -31 -53 -5 0 -9
41 -9 90 0 79 -2 90 -17 90 -22 0 -57 -37 -67 -67 -4 -13 -12 -23 -17 -23 -12
0 -12 46 0 107 17 84 19 163 5 163 -7 0 -15 -3 -17 -7z m-222 -204 c9 -29 -2
-69 -20 -69 -8 0 -15 -4 -15 -10 0 -5 -5 -10 -11 -10 -8 0 -9 14 -5 42 10 63
38 89 51 47z"/>
<path d="M770 841 c0 -67 4 -111 10 -111 6 0 10 22 10 49 0 45 2 50 30 61 42
17 70 -7 70 -61 0 -21 5 -41 10 -44 6 -4 10 14 10 48 0 70 -21 92 -80 84 l-40
-5 0 38 c0 22 -4 42 -10 45 -6 4 -10 -33 -10 -104z"/>
<path d="M656 933 c-11 -12 -7 -178 6 -191 14 -14 68 -16 68 -2 0 6 -11 10
-25 10 -23 0 -25 3 -25 50 0 43 3 50 20 50 11 0 20 5 20 10 0 6 -9 10 -20 10
-15 0 -20 7 -20 29 0 30 -12 46 -24 34z"/>
<path d="M1860 842 c0 -112 5 -121 58 -106 l27 7 -30 6 c-27 5 -30 10 -33 48
-3 35 1 44 20 54 l22 12 -22 8 c-12 5 -22 16 -22 26 0 10 -5 25 -10 33 -7 10
-10 -18 -10 -88z"/>
<path d="M137 853 c3 -10 9 -22 14 -28 4 -5 13 -29 20 -52 14 -48 35 -56 49
-18 5 14 13 25 18 25 5 0 14 -11 20 -25 15 -33 30 -32 42 3 6 15 17 39 25 54
8 14 15 34 15 43 0 30 -23 10 -38 -33 -16 -48 -28 -53 -44 -17 -14 32 -25 32
-40 0 -15 -34 -30 -27 -44 21 -6 22 -18 40 -27 42 -13 3 -15 -1 -10 -15z"/>
<path d="M382 845 c-28 -32 -28 -66 1 -93 23 -22 60 -28 91 -16 17 7 22 34 6
34 -5 0 -10 -4 -10 -10 0 -14 -54 -12 -68 2 -22 22 -12 28 48 28 66 0 74 10
44 55 -23 35 -82 35 -112 0z m79 -5 c31 -17 22 -30 -20 -30 -47 0 -62 16 -29
29 30 13 26 13 49 1z"/>
<path d="M973 862 c-22 -14 -33 -59 -22 -91 8 -24 19 -32 46 -37 42 -8 92 11
75 28 -9 9 -15 9 -24 0 -24 -24 -68 -9 -68 24 0 2 25 4 55 4 48 0 55 2 55 20
0 44 -76 78 -117 52z m71 -23 c34 -16 23 -29 -25 -29 -40 0 -48 7 -27 28 15
15 21 15 52 1z"/>
<path d="M1254 845 c-19 -29 -14 -93 8 -107 20 -12 72 -9 93 5 14 11 15 16 5
22 -9 5 -15 4 -18 -3 -5 -16 -55 -15 -70 0 -7 7 -12 25 -12 40 0 34 39 55 71
38 27 -15 47 -1 24 17 -32 22 -82 17 -101 -12z"/>
<path d="M1393 855 c-9 -24 2 -118 15 -123 8 -2 12 10 12 43 0 41 3 48 30 63
16 9 30 20 30 24 0 13 -82 6 -87 -7z"/>
<path d="M1516 845 c-35 -53 -8 -115 49 -115 43 0 65 9 65 26 0 17 -12 18 -27
3 -16 -16 -67 -7 -71 14 -3 15 5 17 57 17 64 0 70 5 50 43 -16 30 -28 37 -70
37 -28 0 -41 -6 -53 -25z m82 -7 c21 -21 13 -28 -27 -28 -47 0 -62 16 -29 29
32 13 42 13 56 -1z"/>
<path d="M1696 855 c-23 -24 -29 -54 -16 -85 14 -34 28 -40 93 -39 l47 2 0 47
c0 36 -5 52 -23 68 -27 26 -79 29 -101 7z m75 -15 c23 -13 26 -62 5 -80 -23
-18 -59 -8 -76 23 -14 26 -14 29 10 47 29 23 35 24 61 10z"/>
<path d="M1976 848 c-44 -50 -9 -118 59 -118 26 0 39 7 54 29 27 37 26 55 -1
86 -29 33 -85 35 -112 3z m78 -8 c20 -7 26 -17 26 -38 0 -34 -16 -52 -48 -52
-48 0 -68 58 -30 84 27 19 21 18 52 6z"/>
<path d="M2144 861 c-9 -9 -4 -120 6 -126 6 -4 10 8 10 29 0 48 9 66 36 77 36
13 29 29 -12 26 -19 -1 -37 -4 -40 -6z"/>
<path d="M2254 855 c-4 -8 -3 -26 0 -39 5 -20 13 -25 43 -28 27 -2 39 -8 41
-20 3 -15 -4 -18 -42 -18 -25 0 -46 -4 -46 -10 0 -17 96 -12 110 5 20 25 -5
63 -44 67 -40 4 -42 32 -3 36 42 5 32 22 -13 22 -27 0 -43 -5 -46 -15z"/>
</g>
</svg>
